<svg id="Capa_1" data-name="Capa 1" xmlns="http://www.w3.org/2000/svg" viewBox="0 0 222.5 199"><defs><style>.cls-1,.cls-3,.cls-40{fill:#12499b;}.cls-1,.cls-42{stroke:#f3f3f3;}.cls-1,.cls-10,.cls-11,.cls-12,.cls-13,.cls-14,.cls-15,.cls-16,.cls-17,.cls-18,.cls-19,.cls-2,.cls-20,.cls-21,.cls-22,.cls-23,.cls-24,.cls-25,.cls-26,.cls-27,.cls-28,.cls-29,.cls-3,.cls-30,.cls-31,.cls-32,.cls-33,.cls-34,.cls-35,.cls-36,.cls-37,.cls-38,.cls-4,.cls-42,.cls-5,.cls-6,.cls-7,.cls-8,.cls-9{stroke-miterlimit:10;}.cls-2{fill:#f3f3f3;stroke:#185abd;isolation:isolate;}.cls-10,.cls-11,.cls-12,.cls-13,.cls-14,.cls-15,.cls-16,.cls-17,.cls-18,.cls-19,.cls-20,.cls-21,.cls-22,.cls-23,.cls-24,.cls-25,.cls-26,.cls-27,.cls-28,.cls-29,.cls-3,.cls-30,.cls-31,.cls-32,.cls-33,.cls-34,.cls-35,.cls-36,.cls-37,.cls-38,.cls-4,.cls-5,.cls-6,.cls-7,.cls-8,.cls-9{stroke:#12499b;}.cls-4{fill:#12499c;}.cls-5{fill:#124a9d;}.cls-6{fill:#134a9e;}.cls-7{fill:#134b9f;}.cls-8{fill:#134ba0;}.cls-9{fill:#134ca1;}.cls-10{fill:#134ca2;}.cls-11{fill:#134da3;}.cls-12{fill:#144da4;}.cls-13{fill:#144ea5;}.cls-14{fill:#144ea6;}.cls-15{fill:#144fa7;}.cls-16{fill:#144fa8;}.cls-17{fill:#1450a9;}.cls-18{fill:#1550aa;}.cls-19{fill:#1551ab;}.cls-20{fill:#1551ac;}.cls-21{fill:#1552ac;}.cls-22{fill:#1552ad;}.cls-23{fill:#1553ae;}.cls-24{fill:#1653af;}.cls-25{fill:#1654b0;}.cls-26{fill:#1654b1;}.cls-27{fill:#1655b2;}.cls-28{fill:#1655b3;}.cls-29{fill:#1656b4;}.cls-30{fill:#1756b5;}.cls-31{fill:#1757b6;}.cls-32{fill:#1757b7;}.cls-33{fill:#1758b8;}.cls-34{fill:#1758b9;}.cls-35{fill:#1759ba;}.cls-36{fill:#1859bb;}.cls-37{fill:#185abc;}.cls-38,.cls-41{fill:#185abd;}.cls-39{opacity:0.53;}.cls-42{fill:none;}.cls-43{fill:#fff;}</style></defs><rect class="cls-1" x="102" y="0.5" width="120" height="174"/><rect class="cls-2" x="92" y="10.5" width="120" height="174"/><rect class="cls-3" x="82" y="21.5" width="120" height="177"/><rect class="cls-4" x="82" y="22.5" width="120" height="176"/><rect class="cls-5" x="81" y="22.5" width="120" height="175"/><rect class="cls-6" x="81" y="23.5" width="120" height="174"/><rect class="cls-7" x="81" y="23.5" width="119" height="174"/><rect class="cls-8" x="81" y="23.5" width="119" height="173"/><rect class="cls-9" x="81" y="24.5" width="119" height="172"/><rect class="cls-10" x="81" y="24.5" width="119" height="172"/><rect class="cls-11" x="80" y="24.5" width="119" height="171"/><rect class="cls-12" x="80" y="25.5" width="119" height="170"/><rect class="cls-13" x="80" y="25.5" width="118" height="169"/><rect class="cls-14" x="80" y="25.5" width="118" height="169"/><rect class="cls-15" x="80" y="26.5" width="118" height="168"/><rect class="cls-16" x="80" y="27.5" width="118" height="167"/><rect class="cls-17" x="79" y="27.5" width="118" height="167"/><rect class="cls-18" x="79" y="27.5" width="118" height="166"/><rect class="cls-19" x="79" y="28.5" width="117" height="165"/><rect class="cls-20" x="79" y="28.5" width="117" height="164"/><rect class="cls-21" x="79" y="28.5" width="117" height="164"/><rect class="cls-22" x="79" y="29.5" width="117" height="163"/><rect class="cls-23" x="78" y="29.5" width="117" height="162"/><rect class="cls-24" x="78" y="29.5" width="117" height="162"/><rect class="cls-25" x="78" y="30.5" width="116" height="161"/><rect class="cls-26" x="78" y="30.5" width="116" height="160"/><rect class="cls-27" x="78" y="31.5" width="116" height="159"/><rect class="cls-28" x="78" y="31.5" width="116" height="159"/><rect class="cls-29" x="77" y="31.5" width="116" height="158"/><rect class="cls-30" x="77" y="32.5" width="116" height="157"/><rect class="cls-31" x="77" y="32.5" width="115" height="157"/><rect class="cls-32" x="77" y="32.5" width="115" height="156"/><rect class="cls-33" x="77" y="33.5" width="115" height="155"/><rect class="cls-34" x="77" y="33.5" width="115" height="154"/><rect class="cls-35" x="76" y="33.5" width="115" height="154"/><rect class="cls-36" x="76" y="34.5" width="115" height="153"/><rect class="cls-37" x="76" y="34.5" width="114" height="152"/><rect class="cls-38" x="76" y="34.5" width="114" height="152"/><g class="cls-39"><path class="cls-40" d="M201,354.35c-54.59-2.39-110.41,3.5-165,20.17V199.17c54.59,16.67,110.41,22.57,165,20.17Z" transform="translate(-23.5 -177)"/></g><path class="cls-41" d="M189,341.67C135,340.44,78,350,24,367.43V188.57c54,17.42,111,27,165,25.76Z" transform="translate(-23.5 -177)"/><path class="cls-42" d="M189,341.67C135,340.44,78,350,24,367.43V188.57c54,17.42,111,27,165,25.76Z" transform="translate(-23.5 -177)"/><path class="cls-43" d="M82.87,316.91l3.42-1.3c13.19-5,22.64-7.3,28.35-7.62,4.29-.22,6.43,1.12,6.43,4a4.23,4.23,0,0,1-1.46,3.09,5.1,5.1,0,0,1-3.25,1.52,19.17,19.17,0,0,1-2.49-.07,13.81,13.81,0,0,0-2.22-.08,53.45,53.45,0,0,0-13.28,3.16,116.45,116.45,0,0,0-11.56,5.67c-3.83,2.06-7,3.29-9.42,3.59A4.47,4.47,0,0,1,73,327a7.42,7.42,0,0,1-1.63-4.67c0-2.11,1.17-5.82,3.51-11a236.44,236.44,0,0,1,22.94-40.94c11.71-16.4,20.79-27.46,27.24-34.48,1.77-1.87,3.54-3.77,5.31-5.67,2.8-3.16,5.22-4.64,7.28-4.51a4.32,4.32,0,0,1,2.73,1.23,3.2,3.2,0,0,1,1.12,2.24c0,1.09-1,2.74-2.91,4.93-.4.44-2.77,3-7.11,7.86-8.1,9.05-14.14,16.23-18.11,21.28s-8.21,11-12.72,17.95C91.83,294.85,85.89,307,82.87,316.91Z" transform="translate(-23.5 -177)"/></svg>